<svg width="512" height="512" xmlns="http://www.w3.org/2000/svg"><g transform="translate(52 37)" fill="none" fill-rule="evenodd"><ellipse fill="#FFF800" cx="204.5" cy="216.962" rx="204.5" ry="208.262"/><path d="M202.15.088c-8.427 0-15.833 3.79-22.234 10.241-4.59 4.626-8.576 10.493-12.38 17.64a155.693 155.693 0 00-3.664 7.381l-.529 1.142c-.456.992-.907 1.99-1.403 3.104l-1.963 4.435-.943.11C82.75 53.711 41.527 123.061 41.527 225.18c0 94.318 51.759 171.191 127.962 185.316l.534.094c2.153 1.264 4.639 3.686 8.096 7.862l4.708 5.794c1.84 2.22 3.379 3.934 4.979 5.474 4.72 4.542 9.662 7.248 15.778 7.248 4.028 0 7.682-1.296 11.046-3.524 2.596-1.72 4.84-3.818 7.586-6.85l1.127-1.271c1.344-1.544 4.502-5.19 5.77-6.588l.684-.74c4.435-4.742 8.186-7.571 12.293-9.037l.132-.047-.59.146c73.01-17.317 121.14-92.402 121.14-183.877 0-88.704-38.327-158.864-104.095-180.605l-2.597-.827c-.578-.177-1.402-.428-1.765-.542a85.881 85.881 0 01-3.082-1.023c-2.653-.94-5.128-1.982-7.387-3.16-3.98-2.074-6.817-4.342-8.227-6.495l-.232-.376c-.738-1.305-11.341-20.156-14.057-23.468C216.362 2.625 210.37.088 202.15.088zm0 23.488l.517.007.51.026.145.194c1.773 2.523 10.46 18 11.9 20.421 3.923 6.593 10.055 11.61 17.751 15.623 3.327 1.734 6.789 3.193 10.409 4.475.877.31 1.732.6 2.6.881l2.482.779 1.185.362c55.83 17.476 89.617 78.545 89.617 158.835 0 81.413-41.7 146.47-103.063 161.024l-.482.114-.471.155c-9.004 2.955-15.987 8.24-23.315 16.227l-1.213 1.352c-2.075 2.342-5.242 6.009-5.497 6.295l-.323.36c-.316.35-.61.669-.885.96l-.509.53-.129-.134a51.28 51.28 0 01-2.094-2.373l-.822-.996c-1.1-1.35-3.258-4.027-3.734-4.608-6.45-7.876-11.405-12.502-18.242-15.511l-1.344-.592-1.45-.243c-64.999-10.892-110.66-77.878-110.66-162.56 0-93.468 35.95-152.21 100.95-158.166l1.978-.164c4.417-.33 6.897-2.252 9.036-4.963.754-.957 1.367-1.947 1.996-3.119l.281-.535c.471-.91.955-1.93 1.583-3.317l3.9-8.74c1.393-3.063 2.19-4.655 3.531-7.175 5.462-10.26 10.586-15.424 13.861-15.424z" fill="#322C2D" fill-rule="nonzero"/><ellipse fill="#322C2D" cx="160.1" cy="132.056" rx="18.282" ry="18.443"/><ellipse fill="#322C2D" cx="183.867" cy="178.163" rx="18.282" ry="18.443"/><ellipse fill="#322C2D" cx="132.677" cy="178.163" rx="18.282" ry="18.443"/></g></svg>